<?xml version="1.0" encoding="utf-8"?>
<!-- Generator: Adobe Illustrator 28.3.0, SVG Export Plug-In . SVG Version: 6.00 Build 0)  -->
<svg version="1.1" id="Layer_1" xmlns="http://www.w3.org/2000/svg" xmlns:xlink="http://www.w3.org/1999/xlink" x="0px" y="0px"
	 viewBox="0 0 144 144" style="enable-background:new 0 0 144 144;" xml:space="preserve">
<style type="text/css">
	.st0{fill:#0D7144;}
</style>
<path class="st0" d="M104.15,100.32c0-0.45,0.04-0.95-0.03-1.32c-0.07-0.38-0.24-0.79-0.39-0.87c-0.09-0.05-0.29,0.43-0.34,0.77
	c-0.07,0.53-0.04,14.99-0.04,15.56c0,7.47,0,14.94,0,22.41v2.32H44.22v-37.31c-0.31-0.02-0.61-0.07-0.9-0.15c0,7.96,0,15.93,0,23.89
	c0,4.15-0.06,8.29-0.06,12.44c0,2.71,0.2,3.2,1.25,3.28c0.2,0.02,0.39,0,0.59,0c11.22,0,22.43,0,33.65,0c7.88,0,15.76,0,23.64,0
	c0.27,0,0.54-0.01,0.81-0.04c0.69-0.07,0.98-0.89,0.97-2.79C104.14,130.39,104.16,108.42,104.15,100.32z"/>
<path class="st0" d="M44.22,39.74V4.24h0.94c19.07,0,38.15,0,57.22,0c0.97,0,0.97,0.01,0.97,2.38c0,15.4,0,16.99,0,32.39
	c0,0.61-0.02,1.26,0.04,1.83c0.04,0.33,0.24,0.81,0.34,0.76c0.15-0.07,0.32-0.47,0.39-0.84c0.07-0.35,0.03-0.84,0.03-1.28
	c0-16.07,0-18.35,0-34.42c0-2.53-0.01-2.53-1.02-2.53c-19.61,0-39.23,0-58.84,0c-0.29,0-0.58,0.06-0.96,0.1v3.05
	c0,11.34,0,22.69,0,34.03C43.63,39.71,43.93,39.72,44.22,39.74z"/>
<path class="st0" d="M132.39,96.87c-6.91,0-13.39,0-20.61,0c5.9-3.75,5.77-9.04,5.12-14.47c-0.82-6.93-1.65-13.86-2.52-20.79
	c-0.08-0.65-0.4-1.28-0.77-2.42c-7.9,12.27-10.5,26.71-19.8,38.92c-3.55-6.28-6.92-11.94-9.97-17.76
	c-3.07-5.88-5.77-11.95-8.76-17.87c-0.5-0.99-1.63-1.66-2.48-2.47c-0.58,1.11-1.65,2.2-1.67,3.32c-0.12,7.81,0.01,15.62-0.01,23.43
	c-0.01,3.45,1.3,6.04,4.38,7.72c0.66,0.36,1.2,0.93,2.29,1.81c-6.06,0-11.45,0-16.91,0c0-0.52-0.14-0.95,0.02-1.17
	c4.12-5.92,4.95-12.72,5.18-19.63c0.23-6.99,0.71-14.02,0.18-20.96c-0.28-3.65-2.46-7.16-3.83-10.83C70.49,39.6,77,41.43,81.6,50.15
	c4.94,9.37,9.5,18.93,14.24,28.41c0.51,1.02,1.08,2.02,2.17,4.03c4.04-9.75,7.75-18.68,11.42-27.63c0.4-0.96,0.56-2.02,0.89-3.01
	c2.53-7.58,6.11-9.98,14.14-9.35c2.38,0.19,4.74,0.61,7.38,1.21c-5.69,2.14-6.09,6.62-5.79,11.54c0.54,8.72,0.73,17.47,1.56,26.15
	c0.36,3.74,1.91,7.38,3.01,11.04C131.05,93.95,131.73,95.28,132.39,96.87z"/>
<path class="st0" d="M51.62,81.03c0.44,5.07,0.88,10.15,1.34,15.47c-14.54,0-28.84,0-42.98,0c7.7-17.64,8.01-35.38,0.37-53.28
	c13.26,0,26.96,0,40.93,0c0,3.92,0,7.81,0,12.07c-3.4-4.26-7.1-7.86-12.66-8.56c-0.81-0.1-1.61-0.28-2.42-0.32
	c-8.41-0.46-9.66,0.7-9.65,8.91c0.01,2.56-0.12,5.15,0.2,7.68c0.47,3.67,2.71,5.2,6.12,3.91c2.28-0.86,4.24-2.57,6.31-3.96
	c0.71-0.48,1.31-1.12,2.31-2c0,6.38,0,12.2,0,19.2c-1.2-1.38-1.76-1.92-2.2-2.56c-0.78-1.14-1.22-2.92-2.26-3.38
	c-2.34-1.02-5.51-2.55-7.33-1.7c-1.79,0.83-2.81,4.25-3.29,6.71c-0.52,2.67,0.03,5.55,0,8.33c-0.04,3.03,1.41,4.69,4.31,5.47
	c8.08,2.18,13.66-0.59,16.83-8.31c0.63-1.53,1.84-2.83,2.79-4.23C50.76,80.65,51.19,80.84,51.62,81.03z"/>
</svg>
